<?xml version="1.0" ?><!DOCTYPE svg  PUBLIC '-//W3C//DTD SVG 1.1//EN'  'http://www.w3.org/Graphics/SVG/1.1/DTD/svg11.dtd'><svg enable-background="new 0 0 24 24" height="24px" id="Layer_1" version="1.1" viewBox="0 0 24 24" width="24px" xml:space="preserve" xmlns="http://www.w3.org/2000/svg" xmlns:xlink="http://www.w3.org/1999/xlink"><g><path d="M23,0H1C0.4,0,0,0.4,0,1v17c0,0.6,0.4,1,1,1h8v2H7c-0.6,0-1,0.4-1,1v2h1h10h1v-2c0-0.6-0.4-1-1-1h-2v-2h8c0.6,0,1-0.4,1-1   V1C24,0.4,23.6,0,23,0z M17,22v1H7v-1h2h1h4h1H17z M10,21v-2h4v2H10z M22,17H2V2h20V17z"/><path d="M13.8,9.4C14.5,8.8,15,8,15,7c0-1.7-1.3-3-3-3S9,5.3,9,7c0,1,0.5,1.8,1.2,2.4C8.3,10.1,7,11.9,7,14h10   C17,11.9,15.7,10.1,13.8,9.4z M10,7c0-1.1,0.9-2,2-2s2,0.9,2,2s-0.9,2-2,2S10,8.1,10,7z M8.1,13c0.4-1.7,2-3,3.9-3s3.4,1.3,3.9,3   H8.1z"/></g></svg>